<svg xmlns="http://www.w3.org/2000/svg" viewBox="0 0 64 64" width="64" height="64">
  <defs>
    <radialGradient id="galaxyGrad" cx="50%" cy="50%" r="50%">
      <stop offset="0%" style="stop-color:#4F46E5;stop-opacity:1" />
      <stop offset="50%" style="stop-color:#7C3AED;stop-opacity:0.8" />
      <stop offset="100%" style="stop-color:#1E1B4B;stop-opacity:1" />
    </radialGradient>
    <radialGradient id="starGrad" cx="50%" cy="50%" r="50%">
      <stop offset="0%" style="stop-color:#FBBF24;stop-opacity:1" />
      <stop offset="100%" style="stop-color:#F59E0B;stop-opacity:0.8" />
    </radialGradient>
  </defs>
  
  <!-- Galaxy background -->
  <circle cx="32" cy="32" r="30" fill="url(#galaxyGrad)" stroke="#312E81" stroke-width="2"/>
  
  <!-- Stars -->
  <circle cx="20" cy="18" r="1.5" fill="url(#starGrad)"/>
  <circle cx="45" cy="22" r="1" fill="#FBBF24"/>
  <circle cx="18" cy="45" r="1" fill="#FBBF24"/>
  <circle cx="48" cy="48" r="1.5" fill="url(#starGrad)"/>
  <circle cx="25" cy="50" r="0.8" fill="#FBBF24"/>
  <circle cx="50" cy="35" r="0.8" fill="#FBBF24"/>
  
  <!-- Central planet with grammar symbol -->
  <circle cx="32" cy="32" r="12" fill="#059669" stroke="#047857" stroke-width="1.5"/>
  
  <!-- Grammar symbol (stylized 'G' for Grammar) -->
  <path d="M28 26 C28 24, 30 22, 34 22 C38 22, 40 24, 40 26 L40 30 L36 30 L36 28 C36 27, 35 26, 34 26 C33 26, 32 27, 32 28 L32 36 C32 37, 33 38, 34 38 C35 38, 36 37, 36 36 L36 34 L38 34 L38 38 C38 40, 36 42, 34 42 C30 42, 28 40, 28 38 Z" fill="#FFFFFF" stroke="#D1FAE5" stroke-width="0.5"/>
  
  <!-- Orbital rings -->
  <circle cx="32" cy="32" r="18" fill="none" stroke="#6366F1" stroke-width="1" stroke-dasharray="2,3" opacity="0.6"/>
  <circle cx="32" cy="32" r="24" fill="none" stroke="#8B5CF6" stroke-width="0.8" stroke-dasharray="3,4" opacity="0.4"/>
</svg>